<mxfile host="app.diagrams.net" modified="2023-11-09T11:06:56.244Z" agent="Mozilla/5.0 (Macintosh; Intel Mac OS X 10_15_7) AppleWebKit/537.36 (KHTML, like Gecko) Chrome/119.0.0.0 Safari/537.36" etag="cdH6Q2WUiSyobYv47jC2" version="22.1.0" type="github">
  <diagram name="第 1 页" id="Nj137eRtPkTNlGcHgJZi">
    <mxGraphModel dx="1674" dy="786" grid="1" gridSize="10" guides="1" tooltips="1" connect="1" arrows="1" fold="1" page="1" pageScale="1" pageWidth="827" pageHeight="1169" math="0" shadow="0">
      <root>
        <mxCell id="0" />
        <mxCell id="1" parent="0" />
        <mxCell id="OX8dRcZmpM75ouLOMdjf-3" value="" style="edgeStyle=orthogonalEdgeStyle;rounded=0;orthogonalLoop=1;jettySize=auto;html=1;" edge="1" parent="1" source="OX8dRcZmpM75ouLOMdjf-1" target="OX8dRcZmpM75ouLOMdjf-2">
          <mxGeometry relative="1" as="geometry" />
        </mxCell>
        <mxCell id="OX8dRcZmpM75ouLOMdjf-1" value="公共业务&lt;br&gt;联络&lt;br&gt;" style="rounded=0;whiteSpace=wrap;html=1;" vertex="1" parent="1">
          <mxGeometry x="120" y="150" width="120" height="60" as="geometry" />
        </mxCell>
        <mxCell id="OX8dRcZmpM75ouLOMdjf-2" value="&lt;b&gt;高明 S&lt;br&gt;&lt;/b&gt;钟兵建S 祝正正S 耿萍 周新师 胡爱琴 陈志安" style="whiteSpace=wrap;html=1;rounded=0;" vertex="1" parent="1">
          <mxGeometry x="320" y="150" width="120" height="60" as="geometry" />
        </mxCell>
        <mxCell id="OX8dRcZmpM75ouLOMdjf-4" value="" style="edgeStyle=orthogonalEdgeStyle;rounded=0;orthogonalLoop=1;jettySize=auto;html=1;" edge="1" parent="1" source="OX8dRcZmpM75ouLOMdjf-5" target="OX8dRcZmpM75ouLOMdjf-6">
          <mxGeometry relative="1" as="geometry" />
        </mxCell>
        <mxCell id="OX8dRcZmpM75ouLOMdjf-5" value="公共业务&lt;br&gt;基础" style="rounded=0;whiteSpace=wrap;html=1;" vertex="1" parent="1">
          <mxGeometry x="120" y="270" width="120" height="60" as="geometry" />
        </mxCell>
        <mxCell id="OX8dRcZmpM75ouLOMdjf-6" value="&lt;b&gt;高静阳 S&lt;br&gt;&lt;/b&gt;倪森森S 林毓峰S 秦梓峰 张晓炎" style="whiteSpace=wrap;html=1;rounded=0;" vertex="1" parent="1">
          <mxGeometry x="320" y="270" width="120" height="60" as="geometry" />
        </mxCell>
        <mxCell id="OX8dRcZmpM75ouLOMdjf-7" value="" style="edgeStyle=orthogonalEdgeStyle;rounded=0;orthogonalLoop=1;jettySize=auto;html=1;" edge="1" parent="1" source="OX8dRcZmpM75ouLOMdjf-8" target="OX8dRcZmpM75ouLOMdjf-9">
          <mxGeometry relative="1" as="geometry" />
        </mxCell>
        <mxCell id="OX8dRcZmpM75ouLOMdjf-8" value="公共业务&lt;br&gt;数据产品" style="rounded=0;whiteSpace=wrap;html=1;" vertex="1" parent="1">
          <mxGeometry x="120" y="390" width="120" height="60" as="geometry" />
        </mxCell>
        <mxCell id="OX8dRcZmpM75ouLOMdjf-9" value="&lt;b&gt;待招 S&lt;br&gt;&lt;/b&gt;赵净涛S&amp;nbsp; &amp;nbsp;熊益杰，谷永超" style="whiteSpace=wrap;html=1;rounded=0;" vertex="1" parent="1">
          <mxGeometry x="320" y="390" width="120" height="60" as="geometry" />
        </mxCell>
        <mxCell id="OX8dRcZmpM75ouLOMdjf-10" value="极氪学还有一个hc，人进来后，补充到基础，从基础组挪一个到极氪学" style="shape=callout;whiteSpace=wrap;html=1;perimeter=calloutPerimeter;position2=0;" vertex="1" parent="1">
          <mxGeometry x="460" y="210" width="120" height="90" as="geometry" />
        </mxCell>
      </root>
    </mxGraphModel>
  </diagram>
</mxfile>
